<svg width="355" height="89" fill="none" xmlns="http://www.w3.org/2000/svg">
  <path fill-rule="evenodd" clip-rule="evenodd" d="M350.923 9.648c2.559 1.69 3.839 2.687 3.839 2.994.016.56-.08 1.116-.282 1.638a1.562 1.562 0 0 1-.486.844c-.346.37-.79.637-1.28.768a3.3 3.3 0 0 0-1.023.537l-.589.589V75.923a19.54 19.54 0 0 1-.511 3.02 25.606 25.606 0 0 1-4.785 9.544h-17.912a241.973 241.973 0 0 0 5.655-5.425 14.966 14.966 0 0 0 4.324-7.037c.179-.768.358-1.638.512-2.559h-10.108l-4.298-11.003h14.815V57.5h-23.592a21.91 21.91 0 0 1 0 4.99 34.978 34.978 0 0 1-5.476 20.777 18.8 18.8 0 0 1-4.76 5.118h-21.852a15.35 15.35 0 0 0 6.499-2.738 54.478 54.478 0 0 0 6.628-5.348 17.915 17.915 0 0 0 3.684-8.162c.93-3.81 1.487-7.7 1.664-11.618a23.08 23.08 0 0 0-.333-2.942h-23.055V39.152l1.637 2.15a13.206 13.206 0 0 0 5.118 3.582 17.914 17.914 0 0 0 7.011 1.433h43.066c.981.05 1.943-.28 2.687-.921a4.972 4.972 0 0 0 1.1-1.459V17.274a35.069 35.069 0 0 0-.947-7.19 60.831 60.831 0 0 1-3.992-7.882 7.088 7.088 0 0 1 0-1.382c.025-.184.095-.36.205-.511a.766.766 0 0 1 .665-.307c.288.058.564.162.819.307l.512.307h.23a66.258 66.258 0 0 1 9.704 5.743l.685.453.001.001c1.656 1.096 3.068 2.03 4.221 2.835Zm-64.585 22.467a16.128 16.128 0 0 1-3.327-8.981l.128.026a12.271 12.271 0 0 1 0-1.357 16.253 16.253 0 0 1 .691-4.708c.149-.592.337-1.173.563-1.74l.384-.87a18.986 18.986 0 0 1 4.964-6.295l.589-.486a22.824 22.824 0 0 1 4.068-2.559 25.335 25.335 0 0 1 3.48-1.433 33.27 33.27 0 0 1 10.926-1.689c1.483.024 2.963.152 4.427.384h.512c-1.14.202-2.267.467-3.378.793a31.46 31.46 0 0 0-4.478 1.766 20.646 20.646 0 0 0-3.71 2.277c-.537.41-1.049.845-1.535 1.28a11.617 11.617 0 0 0-2.943 3.07l-.691 1.178a15.906 15.906 0 0 0-1.023 2.558 20.18 20.18 0 0 0-.589 3.941v1.203a19.882 19.882 0 0 0 1.894 9.032 13.203 13.203 0 0 0 4.989 5.297 12.795 12.795 0 0 0 6.73 1.817H311.056c-.665.41-1.356.793-2.098 1.177a33.245 33.245 0 0 1-4.913 1.92c-.921.306-1.894.537-2.891.767h-.487c-1.855-.4-3.67-.965-5.424-1.689a22.264 22.264 0 0 1-8.905-6.678Zm-66.07 16.556c2.738 1.638 6.474.845 11.259-2.43a23.027 23.027 0 0 0 5.732-5.195 30.406 30.406 0 0 0 1.177-12.538 32.583 32.583 0 0 0-5.527.588 9.132 9.132 0 0 0-5.808 2.405l-2.099 3.352c-.639 1.024-1.254 1.638-1.816 1.638a1.33 1.33 0 0 1-1.408-.844 2.378 2.378 0 0 1-.358-.973V23.723a8.167 8.167 0 0 1 3.454-2.201 34.981 34.981 0 0 1 13.946-1.92c1.109.103 2.184.154 3.224.154l2.175.18h.486c1.664.204 3.225.46 4.709.767 1.896.534 3.829.928 5.783 1.177l2.021.205a9.341 9.341 0 0 0 5.502-.691 23.004 23.004 0 0 0 3.633-3.352 6.904 6.904 0 0 0 1.843-3.787v14.79a8.039 8.039 0 0 1-3.48 2.098 17.4 17.4 0 0 1-9.519.333 44.639 44.639 0 0 1-3.634-.921 28.163 28.163 0 0 0 1.305 10.568 23.04 23.04 0 0 0 5.706 5.117c4.785 3.276 8.521 4.069 11.259 2.431l-3.07 11.054a24.388 24.388 0 0 1-13.255-4.247 22.623 22.623 0 0 1-8.47-8.214 22.31 22.31 0 0 1-8.444 8.214 24.388 24.388 0 0 1-13.255 4.247l-3.071-11.054Zm47.851 20.931a17.715 17.715 0 0 1-6.73 1.356h-32.165a17.38 17.38 0 0 1-7.165-1.381 13.112 13.112 0 0 1-4.785-3.43l-1.535-2.046v17.63h58.7V64.126l-1.561 2.022a12.797 12.797 0 0 1-4.759 3.454Zm-112.103 7.242a13.404 13.404 0 0 1-3.89-6.32 53.161 53.161 0 0 1-1.126-8.19V27.484a.888.888 0 0 1 0-.23 4.168 4.168 0 0 1 .742-1.51l1.305-1.33c.459-.414.795-.945.973-1.536a.946.946 0 0 0-.486-.946l-.614-.282h-14.637c-.33.05-.655.127-.972.23-.384.128-.487.333-.333.589.48.983 1.054 1.917 1.714 2.79.315.337.606.696.87 1.074.261.375.46.79.589 1.228v15.353h-7.933V21.65H94.552a8.572 8.572 0 0 1 4.76 5.271c.275.838.498 1.693.665 2.56.279 1.19.425 2.41.435 3.633V65.61a8.319 8.319 0 0 0 2.866 7.344 11.538 11.538 0 0 0 6.576 1.92h22.364V52.457h7.907V70.37c.082.916.244 1.824.486 2.712a23.04 23.04 0 0 0 4.299 8.649h16.172c-1.254-1.177-2.942-2.815-5.066-4.887ZM120.934 64.51h-9.11V32.14h9.11v32.37ZM307.32 5.503a34.122 34.122 0 0 1 4.888-1.944l-.128-.18a34.736 34.736 0 0 1 2.917-.741h.486c1.855.4 3.671.965 5.425 1.688a22.263 22.263 0 0 1 8.905 6.679 15.35 15.35 0 0 1 2.814 5.91c.158.583.286 1.172.384 1.767v.486c.099.72.159 1.447.179 2.175a16.576 16.576 0 0 1-1.714 7.292 19.32 19.32 0 0 1-4.964 6.32c-.208.149-.404.311-.589.487a24.841 24.841 0 0 1-4.068 2.559 26.753 26.753 0 0 1-3.48 1.433 34.01 34.01 0 0 1-10.952 1.637 36.497 36.497 0 0 1-4.453-.281h-.486c1.149-.218 2.286-.5 3.403-.844a28.597 28.597 0 0 0 4.478-1.766 20.477 20.477 0 0 0 3.66-2.252l.153-.124c.482-.39.942-.762 1.382-1.155a11.343 11.343 0 0 0 2.943-3.097c.242-.371.464-.755.665-1.151a15.947 15.947 0 0 0 1.765-7.267h-.128v-.205a21.918 21.918 0 0 0-.895-6.448c-.035-.106-.086-.212-.137-.32-.097-.202-.196-.41-.196-.627-.199-.55-.43-1.088-.691-1.612a13.278 13.278 0 0 0-4.887-5.425 12.796 12.796 0 0 0-6.73-1.816H305.222a17.89 17.89 0 0 1 2.098-1.178ZM90.023 76.843a13.358 13.358 0 0 1-3.89-6.294 51.164 51.164 0 0 1-.972-6.474V27.253c.162-.54.413-1.05.742-1.51l1.561-1.33c.463-.415.807-.944.998-1.536a.972.972 0 0 0-.512-.946l-.588-.282H72.7a6.11 6.11 0 0 0-.973.23c-.384.128-.486.333-.333.589a19.07 19.07 0 0 0 1.715 2.79c.322.33.613.69.87 1.074.271.369.47.785.588 1.228v15.353h-9.39l3.326 9.417h5.834v17.912c.094.915.257 1.821.486 2.712a23.03 23.03 0 0 0 4.3 8.777H95.14l-1-.96a544.66 544.66 0 0 0-4.118-3.927Zm216.402-61.412c1.151-1.433 2.277-1.433 3.403 0l3.275 4.043a3.095 3.095 0 0 1 0 4.248l-3.275 4.094c-1.126 1.416-2.252 1.416-3.378 0l-3.275-4.094a3.124 3.124 0 0 1 0-4.273l3.25-4.018Zm-96.546 62.155a14.893 14.893 0 0 1-.946-3.25V27.842a.808.808 0 0 1 0-.23 4.262 4.262 0 0 1 .742-1.536c.17-.205.605-.64 1.305-1.305a3.66 3.66 0 0 0 .972-1.535.97.97 0 0 0-.486-.973l-.614-.281H192.53a8.619 8.619 0 0 1 4.657 4.376c.462 1.062.78 2.18.947 3.326v12.282h-15.993l3.506 9.929h12.462v9.851a2.556 2.556 0 0 1-1.331 2.56 8.188 8.188 0 0 1-3.966.767h-19.499V32.14l.461-.461c.238-.189.506-.336.793-.435.379-.092.724-.287.998-.563a1.33 1.33 0 0 0 .384-.691 3.609 3.609 0 0 0 0-1.382 13.21 13.21 0 0 0-3.019-2.328 133.956 133.956 0 0 0-4.35-2.866c-.461-.333-3.148-1.715-8.061-4.171h-.179l-.384-.205a1.995 1.995 0 0 0-.639-.256.537.537 0 0 0-.512.256.663.663 0 0 0-.179.384 7.483 7.483 0 0 0 0 1.1 50.646 50.646 0 0 0 3.198 6.32c.453 1.845.71 3.732.768 5.63v31.832a12.488 12.488 0 0 0 2.226 7.319 7.682 7.682 0 0 0 6.141 3.147h13.076c1.428 0 3.116-.154 5.054-.33.564-.051 1.148-.105 1.753-.156a66.552 66.552 0 0 0 7.292-.973v8.598h16.402a8.573 8.573 0 0 1-4.657-4.324ZM53.687 29.633a47.339 47.339 0 0 0 4.657 23.695C61.876 60.39 65.92 64.1 70.601 64.51c-.313.498-1.252 1.82-2.748 3.928l-1.986 2.802c-2.66 3.761-3.991 5.68-3.991 5.68a43.323 43.323 0 0 1-8.547-8.52 36.694 36.694 0 0 1-6.96-13.665c-.64 1.33-1.51 3.148-2.559 5.45a43.19 43.19 0 0 1-5.322 8.42 40.378 40.378 0 0 1-8.88 9.467 28.812 28.812 0 0 1-6.985 4.196l-16.326-2.43a31.089 31.089 0 0 1-3.454-.666 15.357 15.357 0 0 1-2.38-.69 14.43 14.43 0 0 0 4.632-.513c.967-.178 1.923-.409 2.866-.69A36.592 36.592 0 0 0 20.55 70.6a45.163 45.163 0 0 0 10.695-12.794c.582-.873 1.145-1.981 1.704-3.084l.24-.473.308-.589.998-1.714a67.59 67.59 0 0 0 4.069-10.389 50.66 50.66 0 0 0 2.226-11.54 35.038 35.038 0 0 0-.074-1.433 28.39 28.39 0 0 1-.08-1.843 51.427 51.427 0 0 0-.512-4.682l-.409-1.74a34.992 34.992 0 0 0-1.382-3.276 20.754 20.754 0 0 0-2.38-3.915 5.558 5.558 0 0 1-.511-.742 4.555 4.555 0 0 0-1.203-1.177c-.46-1.663-.41-2.687 0-2.687a3.454 3.454 0 0 1 1.28-.128c.753.195 1.46.544 2.072 1.024l.333.18c1.842.895 4.81 2.532 8.956 4.86l.588.36.794.383a55.7 55.7 0 0 1 5.936 3.429l2.84 1.689.538 1.151c.358.768.281 1.433.205 1.561-.077.128-.333.384-.794.384a9.375 9.375 0 0 0-1.356.46 2.943 2.943 0 0 0-1.791 1.638v.64l-.154 3.48Z" fill="#181818"/>
</svg>
